<svg xmlns="http://www.w3.org/2000/svg" width="80.725" height="100" viewBox="0 0 80.725 100">
  <g id="runner" transform="translate(-284.556 -22.062)">
    <g id="Runner-2" data-name="Runner" transform="translate(284.556 22.062)">
      <g id="g14" transform="translate(7.327 0)">
        <path id="path2" d="M2050.752,229.589c2.4,2.062,3.176,6.453,1.668,10.824a11.578,11.578,0,0,1-5.871,6.989,19.13,19.13,0,0,0,3.908-6.748C2051.915,236.43,2051.931,232.293,2050.752,229.589Z" transform="translate(-2000.073 -229.589)" fill-rule="evenodd"/>
        <path id="path4" d="M1988.528,816.141c-.662,8.244-1.449,10.81,7.719,17.037,3.21,2.18,12.229,4.3,18.706,6.069-4.678-.187-16.032-1.986-21.292-5.558C1984.579,827.52,1985.072,820.909,1988.528,816.141Z" transform="translate(-1941.556 -798.573)" fill-rule="evenodd"/>
        <path id="path6" d="M531.916,1990.372c-4.126,10.129-4.884,13.612-16.755,15.779-4.156.759-13.539-1.844-20.416-3.429,4.342,2.432,15.655,6.744,22.464,5.5C528.969,2006.075,532.312,1997.974,531.916,1990.372Z" transform="translate(-494.744 -1937.637)" fill-rule="evenodd"/>
        <path id="path8" d="M1735.347,1991.358c3.133,4.241,4.41,5.49,6.96,11.8,3.677,9.1,8.215,25.354,13,30.805-4.357-9.814-6.49-19.323-10.086-29.9C1743.768,1999.794,1739.912,1994.042,1735.347,1991.358Z" transform="translate(-1698.191 -1938.593)" fill-rule="evenodd"/>
        <path id="path10" d="M1744.323,812.016c-2.188,3.563-3.209,4.625-4.226,9.854-1.467,7.541-1.94,20.931-5.553,25.538,2-8.144,1.721-15.96,2.708-24.7a15.231,15.231,0,0,1,7.072-10.693Z" transform="translate(-1697.412 -794.572)" fill-rule="evenodd"/>
        <path id="path12" d="M1053.525,814.711c-7.191.316-14.686,6.484-21.522,12.872a27.136,27.136,0,0,0-2.594,2.77c-3.781,4.678-4.242,8.824-6.886,13.416-.009-8.366,2.534-11.834,9.55-18.391a43.615,43.615,0,0,1,12.925-8.7C1046.785,815.916,1051.126,814.263,1053.525,814.711Z" transform="translate(-1006.716 -797.113)" fill-rule="evenodd"/>
      </g>
      <path id="path16" d="M2397.18,3419.443c5.287,2.3,12.623.647,14.054.2-4.124,2.285-8.176,4.669-14.3,4.206a2.409,2.409,0,0,0,.26-.56A7.706,7.706,0,0,0,2397.18,3419.443Z" transform="translate(-2332.634 -3323.906)" fill="#4964ff" fill-rule="evenodd"/>
      <path id="path18" d="M257.325,2317.452c-4.687,3.358-6.878,10.412-7.229,11.871.155-4.712.189-9.413,3.731-14.433a11.132,11.132,0,0,0,.775,1.032A5.175,5.175,0,0,0,257.325,2317.452Z" transform="translate(-250.096 -2252.434)" fill="#4964ff" fill-rule="evenodd"/>
    </g>
  </g>
</svg>
